<?xml version="1.0" encoding="utf-8"?>
<!-- Generator: Adobe Illustrator 25.4.1, SVG Export Plug-In . SVG Version: 6.00 Build 0)  -->
<svg version="1.1" id="Layer_1" xmlns="http://www.w3.org/2000/svg" xmlns:xlink="http://www.w3.org/1999/xlink" x="0px" y="0px"
	 viewBox="0 0 240 200" style="enable-background:new 0 0 240 200;" xml:space="preserve">
<style type="text/css">
	.st0{fill:#FFFFFF;stroke:#000111;stroke-width:0.75;stroke-linejoin:round;}
	.st1{fill:none;stroke:#3C3C3B;stroke-width:0.25;stroke-linejoin:round;stroke-dasharray:2,1;}
	.st2{fill:none;stroke:#CBCBCB;stroke-linejoin:round;}
	.st3{fill:#CBCBCB;}
	.st4{fill:#FFFFFF;}
	.st5{font-family:'HelveticaNeue-Medium';}
	.st6{font-size:6px;}
</style>
<g>
	<path class="st0" d="M159.2,70.9c-9.4-8.7-39.2-8.7-39.2-8.7s-31.5,0-39.2,8.7c0,0,4.7-3.2,39.2-3.2S159.2,70.9,159.2,70.9z"/>
	<path class="st0" d="M165.9,98.4c-0.8-5.9-1.9-11.5-3-17c-1.7-8.6-3.7-10.5-3.7-10.5s-4.7-3.2-39.2-3.2s-39.2,3.2-39.2,3.2
		s-1.9,2.3-3.6,10.9c-1.1,5.4-2.2,10.9-3,16.5c-0.5,3.4-0.8,6.7-0.9,10.1c18.2,3.6,46.8,3.7,46.8,3.7s28.6-0.1,46.8-3.7
		C166.6,104.9,166.3,101.6,165.9,98.4z"/>
	<path class="st1" d="M80.2,71.9c2.1-0.8,11.1-3.5,39.8-3.5c28.8,0,37.8,2.7,39.9,3.5"/>
	<path class="st1" d="M73.2,107.5c0,0,25.3,3.7,47.4,3.7s46.2-3.5,46.2-3.5"/>
	<path class="st0" d="M166.8,108.4c-18.2,3.6-46.8,3.7-46.8,3.7s-28.6-0.1-46.8-3.7l-17.3,20.1c0,0,8.5,9.3,64,9.3h0.3
		c55.4,0,64-9.3,64-9.3L166.8,108.4z"/>
	<path class="st1" d="M180,123.6c-6.6,2.4-24,7.2-60,7.2h0c-35.9,0-53.4-4.7-60-7.2"/>
	<path class="st1" d="M182.4,126.5c-6.9,2.4-25,7.2-62.3,7.2h0c-37.3,0-55.4-4.7-62.3-7.2"/>
	<path class="st1" d="M178.4,121.8c-7.6,2.5-25,6.7-58.4,6.7h0c-33.3,0-50.7-4.1-58.3-6.6"/>
	<path class="st1" d="M176.8,120c-8.3,2.5-25.6,6.1-56.9,6.1h0c-31.3,0-48.5-3.6-56.8-6.1"/>
	<path class="st1" d="M175.2,118.1c-8.8,2.5-25.9,5.7-55.2,5.7h0c-29.4,0-46.4-3.2-55.2-5.7"/>
	<path class="st1" d="M173.6,116.2c-9.2,2.4-25.9,5.2-53.6,5.2h0c-27.7,0-44.4-2.8-53.6-5.2"/>
	<path class="st1" d="M171.9,114.3c-9.5,2.3-25.9,4.8-52,4.8h0c-26.1,0-42.4-2.5-51.9-4.8"/>
	<path class="st1" d="M170.3,112.4c-9.7,2.2-25.7,4.4-50.3,4.4h0c-24.6,0-40.5-2.2-50.3-4.4"/>
	<path class="st1" d="M168.6,110.4c-9.8,2.1-25.3,4-48.6,4h0c-23.2,0-38.7-2-48.6-4"/>
</g>
<g>
	<g>
		<line class="st2" x1="120" y1="69.5" x2="120" y2="111"/>
		<g>
			<polygon class="st3" points="115.9,72.8 116.6,73.5 120,69.9 123.4,73.5 124.1,72.8 120,68.4 			"/>
		</g>
		<g>
			<polygon class="st3" points="115.9,107.7 116.6,107 120,110.6 123.4,107 124.1,107.7 120,112.1 			"/>
		</g>
	</g>
</g>
<g>
	<g>
		<line class="st2" x1="168.7" y1="108.3" x2="184.7" y2="126.8"/>
		<g>
			<polygon class="st3" points="167.8,113.5 168.8,113.6 169,108.6 173.9,109.2 174,108.2 168,107.5 			"/>
		</g>
		<g>
			<polygon class="st3" points="179.4,127 179.5,126 184.5,126.5 184.6,121.6 185.6,121.6 185.4,127.6 			"/>
		</g>
	</g>
</g>
<rect x="169.7" y="113.1" class="st4" width="16.7" height="7.3"/>
<text transform="matrix(1 0 0 1 171.1339 118.6995)" class="st5 st6">V</text>
<text transform="matrix(1 0 0 1 174.8039 118.6995)" class="st5 st6">isor</text>
<rect x="111.6" y="85.1" class="st4" width="16.8" height="10.3"/>
<text transform="matrix(1 0 0 1 111.7835 91.9539)" class="st5 st6">Depth</text>
</svg>
