<svg id="Layer_1" data-name="Layer 1" xmlns="http://www.w3.org/2000/svg" viewBox="0 0 240 200"><defs><style>.cls-1,.cls-2{fill:none;stroke-linejoin:round;}.cls-1{stroke:#111;stroke-linecap:round;stroke-width:0.75px;}.cls-2{stroke:#cbcbcb;}.cls-3{fill:#cbcbcb;}.cls-4{fill:#fff;}.cls-5{font-size:6px;font-family:HelveticaNeue-Medium, Helvetica Neue;font-weight:500;letter-spacing:-0.01em;}</style></defs><path class="cls-1" d="M120.05,111.58c20.31,0,35.58-.45,40.84-.63h0s-1.61-24.3-10.38-36.83c0,0-10.67-16.33-30.51-16.33S89.49,74.12,89.49,74.12C80.72,86.65,79.11,111,79.11,111h0c5.26.18,20.53.63,40.84.63Z"/><path class="cls-1" d="M120,111.58h.1c20.31,0,35.58-.45,40.84-.63l2-.08a1.35,1.35,0,0,1,1.66,1.68s-.14,22.55,0,25.64c0,0,.5,2.76-2,3.11,0,0-11.27.91-42.53.91h0c-31.26,0-42.53-.91-42.53-.91-2.53-.35-2-3.11-2-3.11.17-3.09,0-25.64,0-25.64a1.35,1.35,0,0,1,1.66-1.68l2,.08c5.26.18,20.53.63,40.84.63h.1"/><line class="cls-1" x1="120" y1="57.79" x2="120" y2="71.91"/><line class="cls-2" x1="126.99" y1="58.87" x2="126.99" y2="141.13"/><polygon class="cls-3" points="122.9 62.19 123.63 62.87 126.99 59.26 130.34 62.87 131.08 62.19 126.99 57.79 122.9 62.19"/><polygon class="cls-3" points="122.9 137.81 123.63 137.13 126.99 140.74 130.34 137.13 131.08 137.81 126.99 142.21 122.9 137.81"/><rect class="cls-4" x="115.99" y="88.2" width="22" height="8.46"/><text class="cls-5" transform="translate(118.75 93.72)">Depth</text></svg>